<?xml version="1.0" encoding="utf-8"?>
<!-- Generator: Adobe Illustrator 21.1.0, SVG Export Plug-In . SVG Version: 6.00 Build 0)  -->
<svg version="1.1" id="Layer_1" xmlns="http://www.w3.org/2000/svg" xmlns:xlink="http://www.w3.org/1999/xlink" x="0px" y="0px"
	 viewBox="0 0 521.9 164" style="enable-background:new 0 0 521.9 164;" xml:space="preserve">
<style type="text/css">
	.st0{fill:url(#SVGID_1_);}
	.st1{fill:url(#SVGID_2_);}
	.st2{fill:url(#SVGID_3_);}
	.st3{fill:url(#SVGID_4_);}
	.st4{fill:#FFFFFF;}
	.st5{font-family:'CircularPro-Book';}
	.st6{font-size:14px;}
</style>
<title>SH-Overcoming Obstacle</title>
<g>
	<g id="Layer_2">
		
			<linearGradient id="SVGID_1_" gradientUnits="userSpaceOnUse" x1="9.7" y1="835" x2="124.9" y2="719.8" gradientTransform="matrix(1 0 0 1 0 -694)">
			<stop  offset="0" style="stop-color:#0065FF"/>
			<stop  offset="0.1238" style="stop-color:#0669FF"/>
			<stop  offset="0.253" style="stop-color:#0A6CFF"/>
			<stop  offset="0.387" style="stop-color:#1773FF"/>
			<stop  offset="0.5231" style="stop-color:#2B80FF"/>
			<stop  offset="0.6609" style="stop-color:#4892FF"/>
			<stop  offset="0.7997" style="stop-color:#6EAAFF"/>
			<stop  offset="0.9377" style="stop-color:#9BC6FF"/>
			<stop  offset="1" style="stop-color:#B2D4FF"/>
		</linearGradient>
		<polygon class="st0" points="124.9,141 9.7,141 9.7,25.8 124.9,25.8 152.2,83.4 		"/>
		
			<linearGradient id="SVGID_2_" gradientUnits="userSpaceOnUse" x1="129.7" y1="835" x2="244.9" y2="719.8" gradientTransform="matrix(1 0 0 1 0 -694)">
			<stop  offset="0" style="stop-color:#0065FF"/>
			<stop  offset="0.1238" style="stop-color:#0669FF"/>
			<stop  offset="0.253" style="stop-color:#0A6CFF"/>
			<stop  offset="0.387" style="stop-color:#1773FF"/>
			<stop  offset="0.5231" style="stop-color:#2B80FF"/>
			<stop  offset="0.6609" style="stop-color:#4892FF"/>
			<stop  offset="0.7997" style="stop-color:#6EAAFF"/>
			<stop  offset="0.9377" style="stop-color:#9BC6FF"/>
			<stop  offset="1" style="stop-color:#B2D4FF"/>
		</linearGradient>
		<polygon class="st1" points="244.9,141 129.7,141 157.1,83.4 129.7,25.8 244.9,25.8 272.2,83.4 		"/>
		
			<linearGradient id="SVGID_3_" gradientUnits="userSpaceOnUse" x1="249.7" y1="835" x2="364.9" y2="719.8" gradientTransform="matrix(1 0 0 1 0 -694)">
			<stop  offset="0" style="stop-color:#0065FF"/>
			<stop  offset="0.1238" style="stop-color:#0669FF"/>
			<stop  offset="0.253" style="stop-color:#0A6CFF"/>
			<stop  offset="0.387" style="stop-color:#1773FF"/>
			<stop  offset="0.5231" style="stop-color:#2B80FF"/>
			<stop  offset="0.6609" style="stop-color:#4892FF"/>
			<stop  offset="0.7997" style="stop-color:#6EAAFF"/>
			<stop  offset="0.9377" style="stop-color:#9BC6FF"/>
			<stop  offset="1" style="stop-color:#B2D4FF"/>
		</linearGradient>
		<polygon class="st2" points="364.9,141 249.7,141 277,83.4 249.7,25.8 364.9,25.8 392.2,83.4 		"/>
		
			<linearGradient id="SVGID_4_" gradientUnits="userSpaceOnUse" x1="376.525" y1="841.825" x2="505.375" y2="712.975" gradientTransform="matrix(1 0 0 1 0 -694)">
			<stop  offset="0" style="stop-color:#0065FF"/>
			<stop  offset="0.1238" style="stop-color:#0669FF"/>
			<stop  offset="0.253" style="stop-color:#0A6CFF"/>
			<stop  offset="0.387" style="stop-color:#1773FF"/>
			<stop  offset="0.5231" style="stop-color:#2B80FF"/>
			<stop  offset="0.6609" style="stop-color:#4892FF"/>
			<stop  offset="0.7997" style="stop-color:#6EAAFF"/>
			<stop  offset="0.9377" style="stop-color:#9BC6FF"/>
			<stop  offset="1" style="stop-color:#B2D4FF"/>
		</linearGradient>
		<polygon class="st3" points="512.2,141 369.7,141 397,83.4 369.7,25.8 512.2,25.8 512.2,83.4 		"/>
		<text transform="matrix(1 0 0 1 16.3335 70.2001)" class="st4 st5 st6">Goals,</text>
		<text transform="matrix(1 0 0 1 16.3335 87.0001)" class="st4 st5 st6">business objectives,</text>
		<text transform="matrix(1 0 0 1 16.3335 103.8001)" class="st4 st5 st6">strategic fit</text>
		<text transform="matrix(1 0 0 1 164.7108 86.9999)" class="st4 st5 st6">User stories</text>
		<text transform="matrix(1 0 0 1 285.0318 78.6)" class="st4 st5 st6">User design,</text>
		<text transform="matrix(1 0 0 1 285.0318 95.4)" class="st4 st5 st6">interactions</text>
		<text transform="matrix(1 0 0 1 403.6668 70.2001)" class="st4 st5 st6">Questions,</text>
		<text transform="matrix(1 0 0 1 403.6668 87.0001)" class="st4 st5 st6">clarifications,</text>
		<text transform="matrix(1 0 0 1 403.6668 103.8001)" class="st4 st5 st6">scope</text>
	</g>
</g>
</svg>
