<?xml version="1.0" encoding="utf-8"?>
<!-- Generator: Adobe Illustrator 21.1.0, SVG Export Plug-In . SVG Version: 6.00 Build 0)  -->
<svg version="1.1" id="Layer_1" xmlns="http://www.w3.org/2000/svg" xmlns:xlink="http://www.w3.org/1999/xlink" x="0px" y="0px"
	 width="27px" height="27px" viewBox="0 0 27 27" style="enable-background:new 0 0 27 27;" xml:space="preserve">
<style type="text/css">
	.st0{fill:#32495C;}
	.st1{fill:#FFFFFF;}
</style>
<g>
	<circle class="st0" cx="13.5" cy="13.5" r="13.5"/>
	<path class="st1" d="M13.5,8c1.8,0,2,0,2.7,0c1.8,0.1,2.7,1,2.8,2.8c0,0.7,0,0.9,0,2.7c0,1.8,0,2,0,2.7c-0.1,1.8-0.9,2.7-2.8,2.8
		c-0.7,0-0.9,0-2.7,0c-1.8,0-2,0-2.7,0c-1.8-0.1-2.7-1-2.8-2.8c0-0.7,0-0.9,0-2.7c0-1.8,0-2,0-2.7C8.1,9,8.9,8.1,10.8,8
		C11.5,8,11.7,8,13.5,8z M13.5,6.8c-1.8,0-2.1,0-2.8,0c-2.5,0.1-3.8,1.5-3.9,3.9c0,0.7,0,1,0,2.8s0,2.1,0,2.8
		c0.1,2.5,1.5,3.8,3.9,3.9c0.7,0,1,0,2.8,0s2.1,0,2.8,0c2.4-0.1,3.8-1.5,3.9-3.9c0-0.7,0-1,0-2.8s0-2.1,0-2.8
		c-0.1-2.4-1.5-3.8-3.9-3.9C15.6,6.8,15.3,6.8,13.5,6.8z M13.5,10c-1.9,0-3.5,1.6-3.5,3.5s1.6,3.5,3.5,3.5s3.5-1.6,3.5-3.5
		C17,11.6,15.4,10,13.5,10z M13.5,15.8c-1.2,0-2.2-1-2.2-2.2c0-1.2,1-2.2,2.2-2.2s2.2,1,2.2,2.2C15.8,14.7,14.7,15.8,13.5,15.8z
		 M17.1,9.1c-0.4,0-0.8,0.4-0.8,0.8s0.4,0.8,0.8,0.8c0.4,0,0.8-0.4,0.8-0.8S17.6,9.1,17.1,9.1z"/>
</g>
</svg>
