<?xml version="1.0" encoding="utf-8"?>
<!-- Generator: Adobe Illustrator 21.1.0, SVG Export Plug-In . SVG Version: 6.00 Build 0)  -->
<svg version="1.1" id="Layer_1" xmlns="http://www.w3.org/2000/svg" xmlns:xlink="http://www.w3.org/1999/xlink" x="0px" y="0px"
	 width="27px" height="27px" viewBox="0 0 27 27" style="enable-background:new 0 0 27 27;" xml:space="preserve">
<style type="text/css">
	.st0{fill:#32495C;}
	.st1{fill:#FFFFFF;}
</style>
<g>
	<circle class="st0" cx="13.5" cy="13.5" r="13.5"/>
	<path class="st1" d="M10.3,9.4c0,0.6-0.5,1.1-1.1,1.1S8,10,8,9.4c0-0.6,0.5-1.1,1.1-1.1S10.3,8.8,10.3,9.4z M10.3,11.4H8v7.3h2.3
		V11.4z M13.9,11.4h-2.3v7.3h2.3v-3.8c0-2.1,2.8-2.3,2.8,0v3.8H19v-4.6c0-3.6-4.1-3.5-5-1.7C13.9,12.4,13.9,11.4,13.9,11.4z"/>
</g>
</svg>
