<?xml version="1.0" encoding="utf-8"?>
<!-- Generator: Adobe Illustrator 21.1.0, SVG Export Plug-In . SVG Version: 6.00 Build 0)  -->
<svg version="1.1" id="Layer_1" xmlns="http://www.w3.org/2000/svg" xmlns:xlink="http://www.w3.org/1999/xlink" x="0px" y="0px"
	 width="27px" height="27px" viewBox="0 0 27 27" style="enable-background:new 0 0 27 27;" xml:space="preserve">
<style type="text/css">
	.st0{fill:#344D87;}
</style>
<path class="st0" d="M13.5,3.5c3.2,0,6,2.6,6,5.6c0,3.1-2.5,7.1-6,12.7c-3.5-5.5-6-9.6-6-12.7C7.5,6.1,10.3,3.5,13.5,3.5 M13.5,1.5
	c-4.2,0-8,3.4-8,7.6c0,4.2,3.5,9.2,8,16.4c4.5-7.2,8-12.2,8-16.4C21.5,4.9,17.7,1.5,13.5,1.5z M13.5,12.5c-1.7,0-3-1.3-3-3
	s1.3-3,3-3s3,1.3,3,3S15.2,12.5,13.5,12.5z"/>
</svg>
