<?xml version="1.0" encoding="utf-8"?>
<!-- Generator: Adobe Illustrator 22.0.0, SVG Export Plug-In . SVG Version: 6.00 Build 0)  -->
<svg version="1.1" id="Layer_1" xmlns="http://www.w3.org/2000/svg" xmlns:xlink="http://www.w3.org/1999/xlink" x="0px" y="0px"
	 width="265.8px" height="39.8px" viewBox="0 0 265.8 39.8" style="enable-background:new 0 0 265.8 39.8;" xml:space="preserve">
<style type="text/css">
	.st0{fill:#FFFFFF;}
</style>
<g>
	<g>
		<path class="st0" d="M17.7,0C7.9,0,0,7.9,0,17.7c0,9.8,7.9,17.7,17.7,17.7c9.8,0,17.7-7.9,17.7-17.7C35.4,7.9,27.5,0,17.7,0z
			 M11.2,28.3C11.2,28.3,11.2,28.3,11.2,28.3c-5.7-5.7-5.7-14.9,0-20.5l0-0.1l20.6,10L11.2,28.3z"/>
		<path class="st0" d="M49.6,10c1.7-0.1,3.4,0.4,4.7,1.4c1.2,1,1.8,2.5,1.8,4c0.1,1.5-0.5,2.9-1.5,3.9c-1.3,1.1-2.9,1.6-4.6,1.5
			h-2.5v5.8h-4.2V10H49.6z M47.4,17.6h1.5c0.8,0.1,1.6-0.2,2.2-0.6c0.4-0.4,0.7-1,0.7-1.6c0-0.6-0.2-1.2-0.7-1.6
			c-0.7-0.5-1.5-0.7-2.4-0.6h-1.4V17.6z"/>
		<path class="st0" d="M64.5,10c1.7-0.1,3.3,0.4,4.6,1.4c1,0.9,1.6,2.3,1.6,3.7c0.1,1.3-0.5,2.5-1.4,3.4c-0.7,0.6-1.6,1.1-2.5,1.3
			l5.5,6.7h-5.1L62.3,20v6.5h-4.2V10H64.5z M62.3,17.5h0.9c0.9,0.1,1.8-0.2,2.5-0.7c0.4-0.4,0.7-1,0.7-1.6c0-0.6-0.3-1.3-0.8-1.6
			c-0.7-0.4-1.5-0.6-2.3-0.5h-1L62.3,17.5z"/>
		<path class="st0" d="M89.9,12.1c3.4,3,3.8,8.2,0.8,11.6c-0.3,0.3-0.5,0.6-0.8,0.8c-1.9,1.7-4.4,2.5-7,2.4c-2.6,0.1-5-0.8-7-2.4
			c-1.8-1.5-2.8-3.8-2.8-6.1c0-2.4,1-4.6,2.8-6.3C80,8.9,85.8,8.9,89.9,12.1L89.9,12.1z M79,14.6c-1,0.9-1.6,2.3-1.6,3.7
			c0,1.4,0.6,2.8,1.6,3.7c1.1,0.9,2.4,1.4,3.9,1.4c1.5,0.1,2.9-0.5,4-1.4c1-0.9,1.6-2.3,1.6-3.7c0-1.4-0.5-2.8-1.6-3.7
			c-1.1-0.9-2.5-1.4-4-1.4C81.5,13.1,80.1,13.6,79,14.6L79,14.6z"/>
		<path class="st0" d="M102.5,10v11.3c0.2,1.6-0.4,3.2-1.6,4.4c-1.1,0.9-2.4,1.3-3.8,1.2c-1,0.1-2-0.1-2.9-0.6
			c-0.6-0.4-1.2-0.8-1.7-1.4l2.6-2.7c0.2,0.3,0.4,0.6,0.6,0.9c0.3,0.3,0.6,0.4,1,0.4c0.4,0,0.7-0.1,1-0.3c0.4-0.6,0.6-1.3,0.5-2V10
			H102.5z"/>
		<path class="st0" d="M116.1,13.3h-6v3.2h5.7v3.2h-5.7v3.7h6v3.2h-10.2V10h10.2V13.3z"/>
		<path class="st0" d="M131.9,26.1c-1.2,0.6-2.6,0.9-4,0.9c-2.6,0.1-5.1-0.7-7.1-2.4c-3.5-3.1-3.8-8.4-0.7-11.8
			c0.2-0.2,0.5-0.5,0.7-0.7c1.9-1.6,4.3-2.4,6.7-2.4c1.5,0,3,0.3,4.3,0.9v4.4c-1.1-1.1-2.6-1.8-4.2-1.8c-1.3-0.1-2.7,0.4-3.7,1.2
			c-1.1,1-1.7,2.3-1.7,3.8c0,1.4,0.5,2.7,1.6,3.6c1.1,0.9,2.5,1.4,3.9,1.4c1.5,0,3-0.6,4.1-1.7V26.1z"/>
		<path class="st0" d="M141,13.3v13.3h-4.2V13.3h-3.9V10h12v3.2L141,13.3z"/>
		<path class="st0" d="M157,10v16.5h-4.2V10H157z"/>
		<path class="st0" d="M160.6,26.5V10h3.6l9.8,10.6V10h4.2v16.5h-3.6l-9.8-10.7v10.7H160.6z"/>
		<path class="st0" d="M190.7,14.1c-0.8-0.7-1.9-1.2-3-1.2c-0.6-0.1-1.3,0.1-1.8,0.6c-0.3,0.3-0.5,0.6-0.5,1c0,0.4,0.1,0.7,0.4,0.9
			c0.7,0.4,1.5,0.8,2.3,0.9l1.3,0.5c0.9,0.3,1.7,0.7,2.5,1.3c0.9,0.8,1.4,1.9,1.3,3.1c0,1.5-0.5,3-1.6,4.1c-1.4,1.2-3.2,1.8-5.1,1.7
			c-1.2,0-2.4-0.2-3.5-0.7c-1-0.5-1.9-1.1-2.6-1.8l2.2-2.7c0.5,0.5,1.1,0.9,1.7,1.3c0.7,0.4,1.5,0.6,2.3,0.6c0.7,0,1.3-0.2,1.9-0.6
			c0.4-0.3,0.7-0.8,0.6-1.3c0-0.5-0.2-0.9-0.6-1.2c-0.7-0.4-1.4-0.7-2.1-0.9l-1.5-0.5c-0.9-0.2-1.8-0.7-2.5-1.3
			c-0.7-0.8-1.1-1.8-1.1-2.9c0-1.4,0.5-2.8,1.6-3.7c1.2-1.1,2.8-1.6,4.4-1.5c1.9,0,3.8,0.6,5.3,1.6L190.7,14.1z"/>
		<path class="st0" d="M200,10v16.5h-4.2V10H200z"/>
		<path class="st0" d="M212.1,17.5h8.9v0.2c0,2.6-1,5.1-2.8,7c-1.7,1.6-4.1,2.4-6.4,2.3c-2.4,0.1-4.8-0.7-6.6-2.4
			c-1.7-1.6-2.7-3.9-2.7-6.3c-0.1-2.4,0.9-4.6,2.6-6.3c3.5-2.7,8.2-3.2,12.1-1.2c1.2,0.8,2.2,1.8,2.9,2.9l-3.8,1.9
			c-0.4-0.7-0.9-1.3-1.6-1.8c-0.8-0.5-1.8-0.8-2.7-0.8c-1.4-0.1-2.7,0.4-3.7,1.3c-1,1-1.6,2.5-1.5,3.9c-0.2,2.7,1.9,4.9,4.5,5.1
			c0.2,0,0.4,0,0.6,0c1.1,0.1,2.2-0.2,3.1-0.9c0.6-0.5,1.1-1.2,1.3-2h-4.3V17.5z"/>
		<path class="st0" d="M227.8,16.3h7.2V10h4.2v16.5h-4.2v-7.1h-7.2v7.1h-4.2V10h4.2V16.3z"/>
		<path class="st0" d="M248.8,13.3v13.3h-4.2V13.3h-3.9V10h12v3.2L248.8,13.3z"/>
	</g>
	<g>
		<path class="st0" d="M263,8.4c0,2.3-1.8,4.1-4.1,4.1c-2.3,0-4.2-1.8-4.2-4.1c0-2.2,1.8-4,4.2-4C261.2,4.4,263,6.2,263,8.4z
			 M255.7,8.4c0,1.8,1.3,3.2,3.2,3.2c1.8,0,3.1-1.4,3.1-3.2c0-1.8-1.3-3.2-3.1-3.2C257.1,5.2,255.7,6.7,255.7,8.4z M258.2,10.6h-0.9
			v-4c0.4-0.1,0.9-0.1,1.6-0.1c0.8,0,1.1,0.1,1.4,0.3c0.2,0.2,0.4,0.5,0.4,0.9c0,0.4-0.3,0.8-0.8,0.9v0c0.4,0.1,0.6,0.4,0.7,1
			c0.1,0.6,0.2,0.9,0.3,1h-1c-0.1-0.1-0.2-0.5-0.3-1c-0.1-0.4-0.3-0.6-0.8-0.6h-0.4V10.6z M258.2,8.3h0.4c0.5,0,0.9-0.2,0.9-0.6
			c0-0.4-0.3-0.6-0.9-0.6c-0.2,0-0.4,0-0.5,0V8.3z"/>
	</g>
</g>
</svg>
