<?xml version="1.0" encoding="utf-8"?>
<!-- Generator: Adobe Illustrator 22.1.0, SVG Export Plug-In . SVG Version: 6.00 Build 0)  -->
<svg version="1.1" id="Layer_1" xmlns="http://www.w3.org/2000/svg" xmlns:xlink="http://www.w3.org/1999/xlink" x="0px" y="0px"
	 viewBox="0 0 45 32" style="enable-background:new 0 0 45 32;" xml:space="preserve">
<style type="text/css">
	.st0{fill:#FFFFFF;}
</style>
<g>
	<path class="st0" d="M7.8,3.8c0,2.1-1.8,3.8-4,3.8c-2,0-3.8-1.7-3.8-3.8S1.9,0,4.1,0S7.8,1.7,7.8,3.8z M45,3.8C45,1.7,43.2,0,41,0
		H15.8c-2.2,0-4,1.7-4,3.8s1.8,3.8,4,3.8h25.4C43.2,7.6,45,5.9,45,3.8z M7.8,16c0,2.1-1.8,3.8-4,3.8C1.8,19.8,0,18.1,0,16
		s1.8-3.8,4-3.8S7.8,13.9,7.8,16z M45,16c0-2.1-1.8-3.8-4-3.8H15.8c-2.2,0-4,1.7-4,3.8s1.8,3.8,4,3.8h25.4C43.2,19.8,45,18.1,45,16z
		 M7.8,28.2c0,2.1-1.8,3.8-4,3.8C1.8,32,0,30.3,0,28.2s1.8-3.8,4-3.8C6.2,24.4,7.8,26.1,7.8,28.2z M45,28.2c0-2.1-1.8-3.8-4-3.8
		H15.8c-2.2,0-4,1.7-4,3.8s1.8,3.8,4,3.8h25.4C43.2,32,45,30.3,45,28.2z"/>
</g>
</svg>
