<?xml version="1.0" encoding="utf-8"?>
<!-- Generator: Adobe Illustrator 21.1.0, SVG Export Plug-In . SVG Version: 6.00 Build 0)  -->
<svg version="1.1" id="Layer_1" xmlns="http://www.w3.org/2000/svg" xmlns:xlink="http://www.w3.org/1999/xlink" x="0px" y="0px"
	 width="27px" height="27px" viewBox="0 0 27 27" style="enable-background:new 0 0 27 27;" xml:space="preserve">
<style type="text/css">
	.st0{fill:#344D87;}
</style>
<path class="st0" d="M18.1,5.2c0.2,0,0.4,0.2,0.4,0.4v15.8c0,0.2-0.2,0.4-0.4,0.4H8.9c-0.2,0-0.4-0.2-0.4-0.4V5.6
	c0-0.2,0.2-0.4,0.4-0.4H18.1z M20.2,5.2c0-0.9-0.7-1.7-1.7-1.7h-10c-0.9,0-1.7,0.7-1.7,1.7v16.7c0,0.9,0.7,1.7,1.7,1.7h10
	c0.9,0,1.7-0.7,1.7-1.7V5.2z M12.2,6h2.5c0.2,0,0.4,0.2,0.4,0.4c0,0.2-0.2,0.4-0.4,0.4h-2.5c-0.2,0-0.4-0.2-0.4-0.4
	C11.8,6.2,12,6,12.2,6z M13.5,21c-0.5,0-0.8-0.4-0.8-0.8c0-0.5,0.4-0.8,0.8-0.8c0.5,0,0.8,0.4,0.8,0.8C14.3,20.6,14,21,13.5,21z
	 M17.7,18.5H9.3V7.7h8.3V18.5z"/>
</svg>
