<?xml version="1.0" encoding="utf-8"?>
<!-- Generator: Adobe Illustrator 21.1.0, SVG Export Plug-In . SVG Version: 6.00 Build 0)  -->
<svg version="1.1" id="Layer_1" xmlns="http://www.w3.org/2000/svg" xmlns:xlink="http://www.w3.org/1999/xlink" x="0px" y="0px"
	 width="27px" height="27px" viewBox="0 0 27 27" style="enable-background:new 0 0 27 27;" xml:space="preserve">
<style type="text/css">
	.st0{fill:#32495C;}
	.st1{fill:none;stroke:#FFFFFF;stroke-miterlimit:10;}
</style>
<g>
	<circle class="st0" cx="13.5" cy="13.5" r="13.5"/>
	<path class="st1" d="M19.4,9.8C19,10,18.5,10.2,18,10.2c0.5-0.3,0.9-0.8,1.1-1.3c-0.5,0.3-1,0.5-1.5,0.6c-0.4-0.5-1.1-0.8-1.8-0.8
		c-1.6,0-2.7,1.5-2.4,3c-2-0.1-3.8-1.1-5-2.5c-0.6,1.1-0.3,2.5,0.7,3.2c-0.4,0-0.8-0.1-1.1-0.3c0,1.1,0.8,2.2,1.9,2.4
		c-0.3,0.1-0.7,0.1-1.1,0c0.3,1,1.2,1.7,2.3,1.7c-1,0.8-2.3,1.2-3.6,1c1.1,0.7,2.3,1.1,3.7,1.1c4.5,0,7-3.8,6.9-7.2
		C18.7,10.7,19.1,10.3,19.4,9.8z"/>
</g>
</svg>
